<svg xmlns="http://www.w3.org/2000/svg" width="1186" height="315" xmlns:v="https://vecta.io/nano"><svg width="1186" height="315" fill="none"><path d="M131.822 258.304c-20.16 0-38.401-4.416-54.72-13.248-16.128-9.024-28.8-21.312-38.016-36.864-9.216-15.744-13.824-33.408-13.824-52.992s4.608-37.152 13.824-52.704C48.302 86.752 61.07 74.464 77.39 65.632c16.32-9.024 34.561-13.536 54.721-13.536 15.744 0 30.144 2.688 43.2 8.064 13.056 5.184 24.192 12.96 33.408 23.328l-18.72 18.144c-15.168-15.936-34.08-23.904-56.736-23.904-14.976 0-28.512 3.36-40.609 10.08s-21.6 16.032-28.512 27.936c-6.72 11.712-10.08 24.864-10.08 39.456s3.36 27.84 10.08 39.744c6.912 11.712 16.416 20.928 28.512 27.648s25.633 10.08 40.609 10.08c22.464 0 41.376-8.064 56.736-24.192l18.72 18.144c-9.216 10.368-20.448 18.24-33.696 23.616-13.056 5.376-27.456 8.064-43.2 8.064z" fill="#c93756"/><path d="M353.311 258.304c-20.352 0-38.688-4.416-55.008-13.248-16.32-9.024-29.184-21.408-38.592-37.152-9.216-15.744-13.824-33.312-13.824-52.704s4.608-36.96 13.824-52.704c9.408-15.744 22.272-28.032 38.592-36.864 16.32-9.024 34.656-13.536 55.008-13.536 20.16 0 38.4 4.512 54.72 13.536 16.32 8.832 29.088 21.12 38.304 36.864 9.216 15.552 13.824 33.12 13.824 52.704s-4.608 37.248-13.824 52.992c-9.216 15.552-21.984 27.84-38.304 36.864-16.32 8.832-34.56 13.248-54.72 13.248zm0-25.632c14.784 0 28.032-3.36 39.744-10.08 11.904-6.72 21.216-15.936 27.936-27.648 6.912-11.904 10.368-25.152 10.368-39.744s-3.456-27.744-10.368-39.456c-6.72-11.904-16.032-21.216-27.936-27.936-11.712-6.72-24.96-10.08-39.744-10.08s-28.224 3.36-40.32 10.08c-11.904 6.72-21.312 16.032-28.224 27.936-6.72 11.712-10.08 24.864-10.08 39.456s3.36 27.84 10.08 39.744c6.912 11.712 16.32 20.928 28.224 27.648 12.096 6.72 25.536 10.08 40.32 10.08z" fill="#bf55ec"/><path d="M594.997 44.161l26.102 12.171-74.611 160.004 98.925 46.129-10.589 22.709-125.027-58.301 85.2-182.712z" fill="#1f4788"/><path d="M727.783 48.039c25.223-6.758 46.682-6.048 64.377 2.131s29.376 22.839 35.042 43.981 2.879 39.678-8.356 55.609-29.465 27.276-54.687 34.034l-48.127 12.895 15.803 58.976-27.819 7.454-52.178-194.731 75.945-20.349zm29.056 111.776c17.619-4.721 30.071-12.033 37.356-21.936 7.235-10.088 8.965-22.18 5.188-36.274s-11.295-23.609-22.556-28.543c-11.31-5.119-25.775-5.318-43.393-.597l-47.292 12.672 23.405 87.351 47.292-12.672z" fill="#2abb9b"/><path d="M883.716 54.63l28.691 2.51-17.571 200.833-28.69-2.51 17.57-200.833z" fill="#f9690e"/><path d="M1080.32 258.304c-20.16 0-38.4-4.416-54.72-13.248-16.13-9.024-28.798-21.312-38.014-36.864-9.216-15.744-13.824-33.408-13.824-52.992s4.608-37.152 13.824-52.704c9.216-15.744 21.984-28.032 38.304-36.864 16.32-9.024 34.56-13.536 54.72-13.536 15.74 0 30.14 2.688 43.2 8.064 13.06 5.184 24.19 12.96 33.41 23.328l-18.72 18.144c-15.17-15.936-34.08-23.904-56.74-23.904-14.97 0-28.51 3.36-40.61 10.08-12.09 6.72-21.6 16.032-28.51 27.936-6.72 11.712-10.08 24.864-10.08 39.456s3.36 27.84 10.08 39.744c6.91 11.712 16.42 20.928 28.51 27.648 12.1 6.72 25.64 10.08 40.61 10.08 22.47 0 41.38-8.064 56.74-24.192l18.72 18.144c-9.22 10.368-20.45 18.24-33.7 23.616-13.05 5.376-27.45 8.064-43.2 8.064z" fill="#6c7a89"/></svg></svg>