<svg width="512" height="512" viewBox="0 0 512 512" fill="none" xmlns="http://www.w3.org/2000/svg">
<mask id="mask0_25_2" style="mask-type:alpha" maskUnits="userSpaceOnUse" x="146" y="116" width="225" height="274">
<path d="M258.357 389.8C223.397 389.8 196.291 380.807 177.037 362.82C158.037 344.833 147.904 319.5 146.637 286.82C146.384 279.98 146.257 268.833 146.257 253.38C146.257 237.673 146.384 226.273 146.637 219.18C147.904 186.753 158.164 161.547 177.417 143.56C196.924 125.32 223.904 116.2 258.357 116.2C280.904 116.2 300.537 120.127 317.257 127.98C333.977 135.58 346.897 146.093 356.017 159.52C365.137 172.693 369.951 187.64 370.457 204.36V205.12C370.457 207.147 369.571 208.92 367.797 210.44C366.277 211.707 364.504 212.34 362.477 212.34H326.377C323.337 212.34 321.057 211.707 319.537 210.44C318.017 209.173 316.751 206.767 315.737 203.22C311.684 187.26 304.971 176.113 295.597 169.78C286.224 163.193 273.684 159.9 257.977 159.9C221.497 159.9 202.497 180.293 200.977 221.08C200.724 227.92 200.597 238.433 200.597 252.62C200.597 266.807 200.724 277.573 200.977 284.92C202.497 325.707 221.497 346.1 257.977 346.1C273.684 346.1 286.224 342.807 295.597 336.22C305.224 329.633 311.937 318.487 315.737 302.78C316.497 299.233 317.637 296.827 319.157 295.56C320.931 294.293 323.337 293.66 326.377 293.66H362.477C364.757 293.66 366.657 294.42 368.177 295.94C369.951 297.46 370.711 299.36 370.457 301.64C369.951 318.36 365.137 333.433 356.017 346.86C346.897 360.033 333.977 370.547 317.257 378.4C300.537 386 280.904 389.8 258.357 389.8Z" fill="black"/>
</mask>
<g mask="url(#mask0_25_2)">
<circle cx="184.5" cy="173.5" r="72.5" fill="#BF55EC"/>
<circle cx="323.5" cy="315.5" r="79.5" fill="#FF6666"/>
<circle cx="316" cy="142" r="92" fill="#22A7F0"/>
<circle cx="160.5" cy="282.5" r="72.5" fill="#FFA400"/>
<circle cx="241" cy="338" r="82" fill="#00CC8E"/>
</g>
</svg>
